<?xml version="1.0" encoding="UTF-8"?> <svg xmlns="http://www.w3.org/2000/svg" width="98" height="21" viewBox="0 0 98 21" fill="none"> <g clip-path="url(#clip0_3473_30595)"> <path fill-rule="evenodd" clip-rule="evenodd" d="M1.63697 20.6118L10.4128 11.861L13.5061 14.9451L3.07363 20.7293C2.67697 20.9493 2.19113 20.946 1.79697 20.7201L1.63697 20.6118ZM9.5278 10.9785L1.16113 19.321V2.63597L9.5278 10.9785ZM14.7561 7.53097L18.8436 9.7968C19.2453 10.0201 19.4945 10.4385 19.4945 10.8918C19.4945 11.3451 19.2453 11.7635 18.8436 11.9868L14.6445 14.3143L11.2986 10.9785L14.7561 7.53097ZM1.54447 1.25263C1.61947 1.18013 1.70363 1.1168 1.79697 1.06347C2.19113 0.837633 2.67697 0.8343 3.07363 1.0543L13.6178 6.90013L10.4128 10.096L1.54447 1.25263Z" fill="black"></path> </g> <path fill-rule="evenodd" clip-rule="evenodd" d="M26.1459 10.9261C26.1459 7.84518 28.7355 5.33673 31.8164 5.33673C33.5196 5.33673 34.7315 6.00557 35.646 6.87659L34.5693 7.95332C33.9157 7.33973 33.0294 6.86366 31.8152 6.86366C29.5653 6.86366 27.8068 8.67506 27.8068 10.9249C27.8068 13.1747 29.5653 14.9885 31.814 14.9885C33.2728 14.9885 34.1026 14.4031 34.6351 13.8694C35.0712 13.4333 35.3569 12.8068 35.4674 11.9476H31.8164V10.4241H36.9555C37.0096 10.6969 37.0378 11.0236 37.0378 11.3775C37.0378 12.5212 36.7239 13.94 35.7142 14.9497C34.7315 15.9723 33.4785 16.5178 31.8152 16.5178C28.7331 16.5178 26.1436 14.0117 26.1436 10.9284L26.1459 10.9261ZM41.1919 9.31804C39.2018 9.31804 37.5773 10.832 37.5773 12.9161C37.5773 14.9897 39.2006 16.5142 41.1919 16.5142C43.1831 16.5142 44.8041 14.9873 44.8041 12.915C44.8041 10.8309 43.1819 9.31686 41.1919 9.31804ZM41.1919 15.099C40.1022 15.099 39.1607 14.1997 39.1607 12.9173C39.1607 11.6219 40.101 10.7356 41.1919 10.7356C42.2815 10.7356 43.2219 11.6208 43.2219 12.9173C43.2219 14.1986 42.2827 15.099 41.1919 15.099ZM49.0734 9.31804C47.0833 9.31804 45.4612 10.832 45.4612 12.9161C45.4612 14.9897 47.0833 16.5142 49.0734 16.5142C51.0634 16.5142 52.6856 14.9873 52.6856 12.915C52.6856 10.8309 51.0646 9.31686 49.0734 9.31804ZM49.0734 15.099C47.9837 15.099 47.0422 14.1997 47.0422 12.9173C47.0422 11.6219 47.9825 10.7356 49.0734 10.7356C50.163 10.7356 51.1046 11.6208 51.1046 12.9173C51.1046 14.1986 50.163 15.099 49.0734 15.099ZM58.7463 9.53667V10.1221H58.6922C58.3384 9.69771 57.6566 9.31686 56.7985 9.31686C54.9989 9.31686 53.3474 10.899 53.3474 12.9314C53.3474 14.9473 54.9977 16.5166 56.7985 16.5166C57.6566 16.5166 58.3384 16.1357 58.6922 15.6996H58.7463V16.2168C58.7463 17.5933 58.0104 18.3303 56.8244 18.3303C55.8558 18.3303 55.2563 17.6345 55.0107 17.0503L53.633 17.6227C54.028 18.576 55.0788 19.7491 56.8232 19.7491C58.6758 19.7491 60.2438 18.6571 60.2438 15.9994V9.5355L58.7463 9.53667ZM56.9337 15.099C55.8441 15.099 54.9284 14.1845 54.9284 12.9314C54.9284 11.6643 55.8429 10.7368 56.9337 10.7368C58.0104 10.7368 58.8556 11.6631 58.8556 12.9314C58.8568 14.1845 58.0116 15.099 56.9337 15.099ZM61.3358 5.71876H62.918V16.298H61.3358V5.71876ZM67.2543 15.099C66.4503 15.099 65.8767 14.7299 65.5111 14.0093L70.3234 12.0169L70.1577 11.6078C69.8591 10.805 68.9446 9.31804 67.0768 9.31804C65.2231 9.31804 63.6821 10.7768 63.6821 12.9173C63.6821 14.9332 65.209 16.5154 67.2543 16.5154C68.9047 16.5154 69.8591 15.508 70.2541 14.9203L69.0269 14.1034C68.6167 14.704 68.0572 15.1002 67.2543 15.099ZM67.1309 10.7086C67.7574 10.7086 68.2887 11.0225 68.4662 11.4715L65.2478 12.808C65.2078 11.4174 66.3257 10.7086 67.1309 10.7086Z" fill="#131313"></path> <path fill-rule="evenodd" clip-rule="evenodd" d="M77.266 5.71844H73.4834V16.2976H75.062V12.2905H77.2672C79.0175 12.2905 80.7384 11.0233 80.7384 9.00387C80.7384 6.98795 79.0187 5.71962 77.2696 5.71962L77.266 5.71844ZM77.3072 10.8176H75.062V7.19013H77.3072C78.4874 7.19013 79.1597 8.16929 79.1597 9.00387C79.1597 9.82435 78.4874 10.8176 77.3072 10.8176ZM83.1869 16.2976V5.71844H81.6082V16.2976H83.1869ZM90.2785 16.2788V12.2235C90.2785 10.3451 88.875 9.29774 87.0636 9.29774C85.9222 9.29774 84.7385 9.80201 84.2483 10.9175L85.6495 11.5017C85.9492 10.9175 86.5064 10.7259 87.0929 10.7259C87.9087 10.7259 88.7386 11.2161 88.7515 12.0883V12.1976C88.4659 12.0342 87.8546 11.7886 87.1047 11.7886C85.5942 11.7886 84.0567 12.6184 84.0567 14.17C84.0567 15.5865 85.2957 16.4975 86.6839 16.4975C87.7465 16.4975 88.3307 16.0214 88.6975 15.4642H88.7515V16.2812H90.2773L90.2785 16.2788ZM86.8755 15.0963C86.3583 15.0963 85.6365 14.8377 85.6365 14.1994C85.6365 13.3825 86.5358 13.0675 87.3116 13.0675C88.0063 13.0675 88.3319 13.2167 88.7551 13.4213C88.634 14.3711 87.8311 15.0846 86.8755 15.0963ZM95.8302 9.52931L94.02 14.1148H93.9659L92.0875 9.52931H90.3866L93.203 15.9403L91.5962 19.5055H93.243L97.584 9.52931H95.8302Z" fill="#131313"></path> <defs> <clipPath id="clip0_3473_30595"> <rect width="20" height="20" fill="white" transform="translate(0.328125 0.891785)"></rect> </clipPath> </defs> </svg> 