<?xml version="1.0" encoding="UTF-8"?> <svg xmlns="http://www.w3.org/2000/svg" width="134" height="176" viewBox="0 0 134 176" fill="none"> <g clip-path="url(#clip0_2_4795)"> <path d="M0 158.301C0.390365 159.847 1.70857 161.428 3.51713 161.824H8.9832L9.26203 161.936V175.946H12.6753V161.936L12.9854 161.824H18.4563C20.285 161.346 21.5749 159.847 21.9585 158.301V158.267H0V158.301Z" fill="#131313"></path> <path d="M33.7801 175.984H46.7655C48.5721 175.619 49.9149 174.002 50.2913 172.437H30.2543C30.6283 174.003 31.9908 175.619 33.7801 175.984Z" fill="#131313"></path> <path d="M33.7801 168.798H46.7655C48.5721 168.436 49.9149 166.818 50.2913 165.252H30.2543C30.6283 166.819 31.9908 168.436 33.7801 168.798Z" fill="#131313"></path> <path d="M33.7801 161.804H46.7655C48.5721 161.438 49.9149 159.823 50.2913 158.257H30.2543C30.6283 159.823 31.9908 161.438 33.7801 161.804Z" fill="#131313"></path> <path d="M63.3978 161.771H75.3943C77.2029 161.237 78.7215 159.837 79.0917 158.286H60.035V168.743H75.6323V172.413L63.3978 172.422C61.4806 172.965 59.8547 174.273 59.0437 176L60.035 175.981H78.9835V165.266H63.3978V161.771Z" fill="#131313"></path> <path d="M104.222 175.986C105.925 175.252 106.842 173.984 107.193 172.499H92.0411L92.0507 158.281L88.6542 158.291V175.986H104.222Z" fill="#131313"></path> <path d="M117.456 161.818H130.445C132.25 161.454 133.591 159.837 133.97 158.272H113.932C114.306 159.837 115.668 161.454 117.456 161.818Z" fill="#131313"></path> <path d="M114.454 165.279V175.979H117.832V168.855H130.127V175.979H133.503V165.298L114.454 165.279Z" fill="#131313"></path> <path d="M66.9904 123.295L84.0453 25.8712C100.302 25.8712 105.429 27.6818 106.17 35.0721C106.17 35.0721 117.075 30.9421 122.575 22.5542C101.112 12.4523 79.546 11.9968 79.546 11.9968L66.962 27.5646L66.9904 27.5626L54.4064 11.9943C54.4064 11.9943 32.8402 12.4504 11.3797 22.5522C16.8751 30.9402 27.7847 35.0702 27.7847 35.0702C28.5293 27.6793 33.6507 25.8687 49.798 25.857L66.9904 123.295Z" fill="#131313"></path> <path d="M66.9838 7.50021C84.3339 7.36544 104.193 10.2264 124.523 19.2261C127.24 14.2587 127.938 12.0633 127.938 12.0633C105.715 3.1329 84.9031 0.0766623 66.9814 0C49.0607 0.0766623 28.2497 3.13339 6.02918 12.0633C6.02918 12.0633 7.02047 14.7675 9.44246 19.2261C29.7684 10.2264 49.6308 7.36544 66.9814 7.50021H66.9838Z" fill="#131313"></path> </g> <defs> <clipPath id="clip0_2_4795"> <rect width="33.3278" height="43.7835" fill="white" transform="scale(4.01978)"></rect> </clipPath> </defs> </svg> 